<?xml version="1.0" encoding="utf-8"?>
<!-- Generator: Adobe Illustrator 22.0.1, SVG Export Plug-In . SVG Version: 6.00 Build 0)  -->
<svg version="1.1" id="Layer_1" xmlns="http://www.w3.org/2000/svg" xmlns:xlink="http://www.w3.org/1999/xlink" x="0px" y="0px"
	 viewBox="0 0 191.6 115.6" style="enable-background:new 0 0 191.6 115.6;" xml:space="preserve">
<style type="text/css">
	.st0{clip-path:url(#SVGID_2_);fill:#F79221;}
	.st1{clip-path:url(#SVGID_2_);fill:#F89520;}
	.st2{fill:#241F21;}
	.st3{clip-path:url(#SVGID_4_);fill:#241F21;}
	.st4{clip-path:url(#SVGID_6_);fill:#241F21;}
	.st5{clip-path:url(#SVGID_6_);fill:#F89520;}
	.st6{fill:#F89520;}
	.st7{clip-path:url(#SVGID_8_);fill:#F89520;}
	.st8{clip-path:url(#SVGID_10_);fill:#F89520;}
</style>
<g>
	<g>
		<defs>
			<rect id="SVGID_1_" x="1" y="0.6" width="189.7" height="114.5"/>
		</defs>
		<clipPath id="SVGID_2_">
			<use xlink:href="#SVGID_1_"  style="overflow:visible;"/>
		</clipPath>
		<path class="st0" d="M190.5,55.8c-0.5-5.3-2.5-10.4-5.2-14.8c-2.8-4.4-6.4-8.2-10.3-11.5c-7.9-6.5-17.2-11-26.7-14.4
			c9.3,3.9,18.2,8.9,25.5,15.7c3.6,3.4,6.9,7.2,9.2,11.5c2.4,4.3,3.9,9,4,13.7c0.2,4.8-0.9,9.5-3,13.7c-2.1,4.3-5.1,8.1-8.6,11.4
			c-7,6.6-15.7,11.4-24.8,15c-9.1,3.5-18.7,5.9-28.4,7.2c-7.2,1-14.5,1.5-21.8,1.5c-2.5,0-5-0.1-7.5-0.2c-9.7-0.4-19.5-1.7-28.9-4
			c-6-1.4-11.9-3.3-17.6-5.6c-3.2-1.3-6.3-2.7-9.3-4.3c-0.1-0.1-0.2-0.1-0.4-0.2c-0.9-0.4-1.9-0.6-2.8-0.6c-2.6,0-5.1,1.5-6.3,4.1
			c-0.2,0.3-0.3,0.7-0.4,1c-0.9,3.2,0.7,6.7,3.8,8.1c9.8,4.5,20.1,7.4,30.4,9.3c9.7,1.8,19.5,2.6,29.3,2.6c0.7,0,1.3,0,2,0
			c10.3-0.1,20.8-1.2,30.9-3.2c10.2-2,20.2-5.1,29.7-9.4c9.4-4.3,18.5-10,25.8-17.7c3.6-3.9,6.7-8.3,8.8-13.2
			C190.1,66.6,191.1,61.1,190.5,55.8"/>
		<path class="st1" d="M23.6,90.9c-7-4.4-13.5-10-17.8-17.3C3.5,70,2,66,1.3,61.7C0.7,57.4,0.9,53,2.1,48.7
			c1.1-4.2,3.1-8.2,5.6-11.8c2.5-3.6,5.4-6.8,8.6-9.7c6.4-5.7,13.9-10.2,21.6-13.8C53.4,6.4,70.3,2.6,87.3,1.2
			c4.2-0.4,8.6-0.5,12.8-0.6c4.3,0,8.6,0.1,12.9,0.4c8.6,0.6,17.1,1.8,25.6,3.8l0,0c3.7,0.9,6,4.6,5.1,8.3c-0.9,3.7-4.6,6-8.3,5.1
			c-0.2,0-0.3-0.1-0.5-0.1c-7.5-2.3-15.3-4-23.2-5.1c-3.9-0.5-8-0.9-11.9-1.2c-4-0.2-8-0.4-12-0.3c-16,0.2-32.2,2.7-47.2,8.4
			c-7.5,2.9-14.7,6.6-21,11.4c-6.2,4.8-11.7,11-14.2,18.5c-1.3,3.7-1.8,7.7-1.5,11.6c0.3,4,1.5,7.8,3.3,11.5
			C10.9,80.1,16.9,86.1,23.6,90.9"/>
	</g>
	<polygon class="st2" points="57.4,53.5 44.9,53.5 42.1,69.3 33.5,69.3 40.4,30.3 49,30.3 46.3,45.9 58.7,45.9 61.5,30.3 70.1,30.3 
		63.3,69.3 54.6,69.3 	"/>
	<g>
		<defs>
			<rect id="SVGID_3_" x="1" y="0.6" width="189.7" height="114.5"/>
		</defs>
		<clipPath id="SVGID_4_">
			<use xlink:href="#SVGID_3_"  style="overflow:visible;"/>
		</clipPath>
		<path class="st3" d="M77.3,57.4l-2.1,11.9h-8.6l6.9-39.1h14.9c8.4,0,12.4,3.2,12.4,8.8c0,0.8-0.2,2.1-0.4,3l-0.8,4.4
			c-1.3,7.3-4.3,11-14.6,11H77.3z M91.7,42.5c0.1-0.7,0.2-1.3,0.2-1.7c0-2-1.2-2.9-3.8-2.9h-7.3L78.6,50h7.1c4,0,4.9-1.4,5.4-4.3
			L91.7,42.5z"/>
	</g>
	<path class="st2" d="M118.7,61.7h-13.3l-3.5,7.7h-9.3l18.8-39.1h11.8l5.6,39.1h-9.2L118.7,61.7z M108.5,54.5h9.3l-1.6-17
		L108.5,54.5z"/>
	<g>
		<defs>
			<rect id="SVGID_5_" x="1" y="0.6" width="189.7" height="114.5"/>
		</defs>
		<clipPath id="SVGID_6_">
			<use xlink:href="#SVGID_5_"  style="overflow:visible;"/>
		</clipPath>
		<path class="st4" d="M130,60.4c0-0.6,0.1-1.4,0.2-2.3l3-16.9c1.4-8,6.3-11.4,15.8-11.4c3.9,0,7.4,0.6,11.3,1.7l-1.9,7.4
			c-3.3-0.7-7.4-1.3-10.2-1.3c-4.2,0-5.9,1.4-6.6,5.5l-2.4,13.6c-0.1,0.6-0.2,1.4-0.2,1.8c0,2.7,1.5,3.7,4.8,3.7
			c2.8,0,6.6-0.4,10.1-1.1l0.3,7.4c-3.1,0.9-7.4,1.5-11.8,1.5C133.8,69.9,130,65.8,130,60.4"/>
		<path class="st5" d="M31.4,82c0-0.2,0-0.4,0.1-0.6l0.8-4.5c0.4-2.1,1.7-3.1,4.2-3.1c1.1,0,2,0.2,3,0.5l-0.5,2
			c-0.9-0.2-2-0.3-2.7-0.3c-1.1,0-1.6,0.4-1.8,1.5L33.9,81c0,0.2,0,0.4,0,0.5c0,0.7,0.4,1,1.3,1c0.8,0,1.8-0.1,2.7-0.3l0.1,2
			c-0.8,0.2-2,0.4-3.2,0.4C32.4,84.5,31.4,83.4,31.4,82"/>
	</g>
	<polygon class="st6" points="41,73.9 43.4,73.9 41.9,82.3 46.1,82.3 45.7,84.4 39.2,84.4 	"/>
	<polygon class="st6" points="48.5,73.9 50.9,73.9 49,84.4 46.7,84.4 	"/>
	<polygon class="st6" points="60.1,78.6 57.5,83 55.1,83 54.2,78.6 52.9,84.4 50.6,84.4 53.1,73.9 55.4,73.9 56.7,80.7 60.6,73.9 
		62.9,73.9 61.6,84.4 59.4,84.4 	"/>
	<path class="st6" d="M66.6,80.4h2.5l-0.4-4.6L66.6,80.4z M69.3,82.3h-3.6l-0.9,2.1h-2.5l5-10.5h3.2L72,84.4h-2.5L69.3,82.3z"/>
	<polygon class="st6" points="76.2,84.4 73.8,84.4 75.3,75.9 72.5,75.9 72.8,73.9 80.9,73.9 80.5,75.9 77.7,75.9 	"/>
	<polygon class="st6" points="81.7,73.9 88.4,73.9 88,75.9 83.7,75.9 83.4,77.9 87.3,77.9 86.9,80 83,80 82.6,82.3 86.9,82.3 
		86.5,84.4 79.9,84.4 	"/>
	<g>
		<defs>
			<rect id="SVGID_7_" x="1" y="0.6" width="189.7" height="114.5"/>
		</defs>
		<clipPath id="SVGID_8_">
			<use xlink:href="#SVGID_7_"  style="overflow:visible;"/>
		</clipPath>
		<path class="st7" d="M91.2,82c0-0.2,0-0.4,0.1-0.6l0.8-4.5c0.4-2.1,1.7-3.1,4.2-3.1c1.1,0,2,0.2,3,0.5l-0.5,2
			c-0.9-0.2-2-0.3-2.7-0.3c-1.1,0-1.6,0.4-1.8,1.5L93.7,81c0,0.2,0,0.4,0,0.5c0,0.7,0.4,1,1.3,1c0.8,0,1.8-0.1,2.7-0.3l0.1,2
			c-0.8,0.2-2,0.4-3.2,0.4C92.3,84.5,91.2,83.4,91.2,82"/>
		<path class="st7" d="M105.6,76.8c0-0.6-0.4-1-1.5-1c-1.2,0-1.8,0.5-2,1.4l-0.7,4c0,0.1,0,0.3,0,0.4c0,0.6,0.4,1,1.5,1
			c1.2,0,1.8-0.5,2-1.4l0.7-4C105.6,77,105.6,76.9,105.6,76.8 M99,81.7c0-0.2,0-0.3,0-0.5l0.8-4.3c0.3-2,1.5-3.2,4.5-3.2
			c2.5,0,3.7,1.4,3.7,2.9c0,0.1,0,0.3,0,0.5l-0.8,4.3c-0.3,2-1.5,3.2-4.6,3.2C100,84.5,99,83.2,99,81.7"/>
	</g>
	<polygon class="st6" points="111.3,77.2 110.1,84.4 107.8,84.4 109.6,73.9 112.5,73.9 114.8,81.5 116.1,73.9 118.4,73.9 
		116.5,84.4 113.7,84.4 	"/>
	<polygon class="st6" points="122.6,84.4 120.2,84.4 121.7,75.9 118.9,75.9 119.2,73.9 127.3,73.9 126.9,75.9 124.1,75.9 	"/>
	<g>
		<defs>
			<rect id="SVGID_9_" x="1" y="0.6" width="189.7" height="114.5"/>
		</defs>
		<clipPath id="SVGID_10_">
			<use xlink:href="#SVGID_9_"  style="overflow:visible;"/>
		</clipPath>
		<path class="st8" d="M133.1,77.1c0-0.2,0-0.4,0-0.4c0-0.5-0.3-0.8-1.1-0.8h-1.9l-0.6,3.2h2c1,0,1.3-0.4,1.4-1.2L133.1,77.1z
			 M130.8,81.1h-1.6l-0.6,3.3h-2.3l1.8-10.5h4c2.3,0,3.4,0.9,3.4,2.4c0,0.2,0,0.4-0.1,0.6l-0.2,1.3c-0.2,1.3-0.7,2.1-2,2.6l2,3.6
			h-2.6L130.8,81.1z"/>
		<path class="st8" d="M142.4,76.8c0-0.6-0.4-1-1.5-1c-1.2,0-1.8,0.5-2,1.4l-0.7,4c0,0.1,0,0.3,0,0.4c0,0.6,0.4,1,1.5,1
			c1.2,0,1.8-0.5,2-1.4l0.7-4C142.4,77,142.4,76.9,142.4,76.8 M135.8,81.7c0-0.2,0-0.3,0-0.5l0.8-4.3c0.3-2,1.5-3.2,4.5-3.2
			c2.5,0,3.7,1.4,3.7,2.9c0,0.1,0,0.3,0,0.5l-0.8,4.3c-0.3,2-1.5,3.2-4.6,3.2C136.9,84.5,135.8,83.2,135.8,81.7"/>
	</g>
	<polygon class="st6" points="146.8,73.9 149.1,73.9 147.6,82.3 151.8,82.3 151.5,84.4 145,84.4 	"/>
</g>
</svg>
