<?xml version="1.0" encoding="utf-8"?>
<!-- Generator: Adobe Illustrator 22.0.1, SVG Export Plug-In . SVG Version: 6.00 Build 0)  -->
<svg version="1.1" id="Layer_1" xmlns="http://www.w3.org/2000/svg" xmlns:xlink="http://www.w3.org/1999/xlink" x="0px" y="0px"
	 viewBox="0 0 164 72" style="enable-background:new 0 0 164 72;" xml:space="preserve">
<style type="text/css">
	.st0{stroke:#000000;stroke-width:0.72;stroke-linecap:round;stroke-linejoin:round;stroke-miterlimit:10;}
	.st1{fill:#FFFFFF;stroke:#FFFFFF;stroke-width:0.72;stroke-linecap:round;stroke-linejoin:round;stroke-miterlimit:10;}
	.st2{fill:#FFFFFF;stroke:#000000;stroke-width:0.72;stroke-linecap:round;stroke-linejoin:round;stroke-miterlimit:10;}
	.st3{fill:none;stroke:#FFFFFF;stroke-linecap:round;stroke-linejoin:round;}
	.st4{fill:#FFFFFF;}
	.st5{fill:#231F20;}
</style>
<g>
	<polyline class="st0" points="145.4,70.2 146.1,70.2 146.8,70.3 147.6,70.3 148.3,70.2 149.1,70.1 149.8,70.1 150.5,69.9 
		151.3,69.7 152,69.5 152.6,69.2 153.3,68.9 154,68.5 154.7,68.2 155.2,67.8 155.8,67.3 156.4,66.9 157,66.4 157.4,65.9 157.9,65.4 
		158.4,64.8 158.9,64.2 159.3,63.6 159.6,62.9 160,62.2 160.3,61.6 160.6,60.9 160.8,60.2 161,59.5 161.1,58.7 161.3,58 161.4,57.3 
		161.4,56.6 161.4,56.2 161.4,56.1 161.4,56 161.4,55.8 161.4,55.4 161.4,53.5 161.4,49.9 161.4,42.6 161.4,27.9 161.4,24.3 
		161.4,22.5 161.4,21.5 161.4,21.3 161.4,21.2 161.4,21.1 161.4,20.9 161.4,20.3 161.3,19.6 161.2,18.9 161.1,18.2 160.9,17.5 
		160.7,16.8 160.5,16 160.1,15.4 159.8,14.7 159.5,14 159.1,13.4 158.6,12.7 158.1,12.1 157.6,11.5 157.1,11 156.5,10.5 155.9,10 
		155.3,9.6 154.7,9.1 154,8.8 153.3,8.4 152.6,8.1 152,7.9 151.3,7.6 150.6,7.4 149.9,7.3 149.2,7.2 148.5,7.1 136.7,5.6 130.8,4.9 
		124.9,4.3 119,3.7 113.1,3.2 107.2,2.7 101.3,2.3 95.4,2 89.5,1.8 83.6,1.7 77.7,1.8 71.8,1.9 65.9,2.1 60,2.5 54.1,2.9 48.2,3.4 
		42.2,4 36.4,4.6 30.4,5.2 24.5,5.9 18.6,6.7 15.7,7.1 14.9,7.2 14.3,7.3 13.6,7.4 12.9,7.6 12.2,7.8 11.5,8.1 10.9,8.3 10.2,8.7 
		9.6,9 8.9,9.4 8.3,9.9 7.7,10.3 7.1,10.9 6.6,11.4 6,12 5.5,12.6 5.1,13.2 4.7,13.9 4.3,14.5 3.9,15.2 3.6,15.9 3.4,16.6 3.2,17.2 
		3,18 2.8,18.7 2.7,19.4 2.6,20.1 2.6,20.8 2.6,21.1 2.6,21.1 2.6,21.3 2.6,21.5 2.6,21.9 2.6,23.8 2.6,27.4 2.6,34.7 2.6,49.4 
		2.6,53 2.6,54.8 2.6,55.8 2.6,56 2.6,56.1 2.6,56.2 2.6,56.4 2.6,57.1 2.7,57.8 2.8,58.5 3,59.3 3.1,60 3.4,60.7 3.6,61.4 
		3.9,62.1 4.3,62.7 4.6,63.4 5,64 5.5,64.6 5.9,65.2 6.4,65.8 6.9,66.3 7.4,66.8 8,67.2 8.6,67.6 9.2,68.1 9.8,68.4 10.5,68.8 
		11.2,69.1 11.8,69.4 12.6,69.7 13.3,69.8 14,70 14.8,70.1 15.5,70.2 16.2,70.3 17,70.3 17.7,70.2 18.4,70.2 21.4,69.8 27.3,69.1 
		33.2,68.4 39.1,67.7 45,67.2 50.9,66.6 56.8,66.2 62.7,65.8 68.6,65.5 74.5,65.3 80.4,65.2 86.3,65.2 92.2,65.4 98.2,65.6 
		104,65.9 110,66.4 115.8,66.9 121.8,67.4 127.6,68 133.6,68.7 139.5,69.4 145.4,70.2 	"/>
	<path class="st1" d="M39.2,18.6c-7.8,0-14.2,6.3-14.2,14.1s6.4,14.1,14.2,14.1c7.8,0,14.2-6.3,14.2-14.1S47.1,18.6,39.2,18.6"/>
	<path class="st2" d="M126.3,18.6c-7.8,0-14.2,6.3-14.2,14.1s6.4,14.1,14.2,14.1c7.8,0,14.2-6.3,14.2-14.1S134.2,18.6,126.3,18.6"/>
	<g>
		<g>
			<polyline class="st3" points="3.7,50.7 7.5,51.6 9.9,52.2 12.4,52.7 14.8,53.3 17.3,53.9 19.7,54.4 22.2,54.9 24.6,55.4 
				27.1,55.9 29.5,56.3 32,56.8 34.5,57.1 36.9,57.5 39.4,57.8 41.9,58.1 44.4,58.3 46.9,58.6 49.4,58.8 51.8,59 54.4,59.2 
				56.9,59.3 59.4,59.5 61.8,59.6 64.4,59.7 66.9,59.8 71.9,60 76.9,60.2 82,60.3 92,60 97,59.8 102.1,59.6 104.6,59.5 107,59.3 
				109.6,59.2 112.1,59 114.5,58.8 117.1,58.6 119.5,58.3 122,58.1 124.5,57.8 127,57.5 129.4,57.1 131.9,56.8 134.4,56.3 
				136.8,55.9 139.3,55.4 141.7,54.9 144.2,54.4 146.6,53.9 149.1,53.3 151.5,52.7 156.4,51.6 160.2,50.7 			"/>
			<g>
				<polygon class="st4" points="5.2,52.8 4,50.7 6.1,49.5 4.7,49.1 2.6,50.4 3.8,52.4 				"/>
			</g>
			<g>
				<polygon class="st4" points="158.7,52.8 159.9,50.7 157.9,49.5 159.3,49.1 161.3,50.4 160.1,52.4 				"/>
			</g>
		</g>
	</g>
	<g>
		<path class="st4" d="M25.3,53.8l0.7-3.5l-1.2-0.2l0.1-0.7l3.3,0.6l-0.1,0.7l-1.2-0.2l-0.7,3.5L25.3,53.8z"/>
		<path class="st4" d="M27.9,54.3l0.7-4.2l3.1,0.5l-0.1,0.7L29.4,51l-0.2,0.9l2.1,0.4L31.2,53l-2.1-0.4l-0.2,1.1l2.4,0.4l-0.1,0.7
			L27.9,54.3z"/>
		<path class="st4" d="M31.9,54.9l0.6-4.2l0.8,0.1l1.3,3.1l0.4-2.8l0.8,0.1l-0.6,4.2l-0.9-0.1l-1.3-3l-0.4,2.7L31.9,54.9z"/>
		<path class="st4" d="M36.1,54.2l0.8,0c0,0.3,0.1,0.5,0.2,0.7c0.1,0.2,0.3,0.2,0.6,0.3c0.3,0,0.5,0,0.6-0.1
			c0.2-0.1,0.2-0.2,0.3-0.4c0-0.1,0-0.2-0.1-0.3c0-0.1-0.1-0.2-0.3-0.2c-0.1,0-0.3-0.1-0.7-0.3c-0.4-0.2-0.8-0.4-0.9-0.5
			c-0.2-0.3-0.3-0.6-0.3-0.9c0-0.2,0.1-0.4,0.3-0.6c0.1-0.2,0.3-0.3,0.6-0.4c0.2-0.1,0.5-0.1,0.9,0c0.5,0.1,0.9,0.2,1.2,0.5
			c0.2,0.3,0.3,0.6,0.3,1l-0.9-0.1c0-0.2-0.1-0.4-0.2-0.5c-0.1-0.1-0.3-0.2-0.5-0.2c-0.2,0-0.5,0-0.6,0.1c-0.1,0.1-0.2,0.1-0.2,0.2
			c0,0.1,0,0.2,0.1,0.3c0.1,0.1,0.3,0.2,0.8,0.4c0.4,0.2,0.7,0.3,0.9,0.4c0.2,0.1,0.3,0.3,0.4,0.5c0.1,0.2,0.1,0.4,0.1,0.7
			c0,0.2-0.1,0.5-0.3,0.7s-0.4,0.3-0.6,0.4c-0.3,0.1-0.6,0.1-0.9,0c-0.5-0.1-0.9-0.2-1.2-0.5C36.2,55,36.1,54.6,36.1,54.2z"/>
		<path class="st4" d="M40,56l0.5-4.2l0.9,0.1l-0.5,4.2L40,56z"/>
		<path class="st4" d="M41.7,54.1c0-0.4,0.2-0.8,0.3-1.1c0.1-0.2,0.3-0.4,0.5-0.5c0.2-0.2,0.4-0.3,0.6-0.3c0.3-0.1,0.6-0.1,0.9-0.1
			c0.6,0.1,1.1,0.3,1.4,0.7s0.5,1,0.4,1.7c-0.1,0.7-0.3,1.2-0.7,1.5c-0.4,0.3-0.9,0.5-1.6,0.4c-0.6-0.1-1.1-0.3-1.4-0.7
			S41.7,54.8,41.7,54.1z M42.6,54.2c-0.1,0.5,0,0.9,0.2,1.1c0.2,0.3,0.5,0.4,0.8,0.5c0.3,0,0.6-0.1,0.9-0.3c0.2-0.2,0.4-0.6,0.4-1.1
			c0.1-0.5,0-0.9-0.2-1.1c-0.2-0.3-0.5-0.4-0.8-0.4c-0.4,0-0.7,0.1-0.9,0.3C42.8,53.4,42.7,53.7,42.6,54.2z"/>
		<path class="st4" d="M46.3,56.7l0.4-4.2l0.8,0.1l1.5,3l0.3-2.8l0.8,0.1L49.7,57L48.8,57L47.4,54l-0.2,2.8L46.3,56.7z"/>
		<path class="st4" d="M52.3,57.2l0.3-4.2l1.8,0.1c0.5,0,0.8,0.1,1,0.2c0.2,0.1,0.4,0.2,0.5,0.4C56,54,56,54.2,56,54.4
			c0,0.3-0.1,0.6-0.3,0.8c-0.2,0.2-0.5,0.3-0.9,0.3c0.2,0.1,0.3,0.3,0.4,0.4c0.1,0.1,0.3,0.4,0.4,0.7l0.5,0.9l-1-0.1l-0.6-1
			c-0.2-0.3-0.3-0.6-0.4-0.7c-0.1-0.1-0.2-0.2-0.2-0.2c-0.1,0-0.2-0.1-0.4-0.1l-0.2,0l-0.1,1.8L52.3,57.2z M53.3,54.9l0.6,0
			c0.4,0,0.7,0,0.8,0s0.2-0.1,0.3-0.2c0.1-0.1,0.1-0.2,0.1-0.3c0-0.1,0-0.3-0.1-0.4c-0.1-0.1-0.2-0.2-0.3-0.2c-0.1,0-0.3,0-0.6-0.1
			l-0.7,0L53.3,54.9z"/>
		<path class="st4" d="M56.6,57.5l0.3-4.2l3.2,0.2l0,0.7l-2.3-0.1L57.6,55l2.1,0.1l0,0.7l-2.1-0.1l-0.1,1.2l2.4,0.1l0,0.7L56.6,57.5
			z"/>
		<path class="st4" d="M60.5,57.8l0.2-4.2l0.9,0l-0.2,4.2L60.5,57.8z"/>
		<path class="st4" d="M62.2,57.9l0.2-4.3l0.8,0l1.6,2.9l0.2-2.8l0.8,0l-0.2,4.3l-0.9,0l-1.6-2.9L63,57.9L62.2,57.9z"/>
		<path class="st4" d="M66.5,58.1l0.2-4.3l2.9,0.1l0,0.7l-2.1-0.1l0,1l1.8,0.1l0,0.7l-1.8-0.1l-0.1,1.8L66.5,58.1z"/>
		<path class="st4" d="M70.1,56.1c0-0.4,0.1-0.8,0.2-1.1c0.1-0.2,0.2-0.4,0.4-0.6s0.4-0.3,0.6-0.4c0.3-0.1,0.6-0.1,0.9-0.1
			c0.6,0,1.1,0.2,1.5,0.7c0.4,0.4,0.5,1,0.5,1.6c0,0.7-0.2,1.2-0.6,1.6c-0.4,0.4-0.9,0.5-1.5,0.5c-0.6,0-1.1-0.2-1.5-0.6
			C70.2,57.4,70.1,56.8,70.1,56.1z M71,56.2c0,0.5,0.1,0.9,0.3,1.1c0.2,0.3,0.5,0.4,0.8,0.4c0.3,0,0.6-0.1,0.9-0.3
			c0.2-0.2,0.4-0.6,0.4-1.1c0-0.5-0.1-0.9-0.3-1.1c-0.2-0.2-0.5-0.4-0.8-0.4c-0.4,0-0.6,0.1-0.9,0.3C71.1,55.3,71,55.7,71,56.2z"/>
		<path class="st4" d="M74.8,58.5l0.2-4.3l1.8,0.1c0.5,0,0.8,0.1,1,0.2c0.2,0.1,0.4,0.2,0.5,0.4c0.1,0.2,0.2,0.4,0.2,0.7
			c0,0.3-0.1,0.6-0.3,0.8c-0.2,0.2-0.5,0.3-0.9,0.4c0.2,0.1,0.3,0.2,0.4,0.4c0.1,0.1,0.3,0.4,0.5,0.7l0.5,0.8l-1,0L77,57.6
			c-0.2-0.3-0.4-0.6-0.4-0.6c-0.1-0.1-0.2-0.2-0.3-0.2c-0.1,0-0.2-0.1-0.4-0.1l-0.2,0l-0.1,1.8L74.8,58.5z M75.8,56l0.6,0
			c0.4,0,0.7,0,0.8,0c0.1,0,0.2-0.1,0.2-0.2c0.1-0.1,0.1-0.2,0.1-0.3c0-0.1,0-0.3-0.1-0.4c-0.1-0.1-0.2-0.2-0.3-0.2
			c-0.1,0-0.3,0-0.6,0l-0.7,0L75.8,56z"/>
		<path class="st4" d="M82,57l0.8,0.2c-0.1,0.5-0.3,0.8-0.6,1c-0.3,0.2-0.7,0.4-1.1,0.4c-0.6,0-1-0.2-1.4-0.6
			c-0.4-0.4-0.6-0.9-0.6-1.6c0-0.7,0.2-1.3,0.5-1.7c0.4-0.4,0.8-0.6,1.4-0.6c0.5,0,1,0.1,1.3,0.4c0.2,0.2,0.4,0.4,0.5,0.8l-0.9,0.2
			c-0.1-0.2-0.2-0.4-0.3-0.5C81.4,55.1,81.2,55,81,55c-0.3,0-0.6,0.1-0.8,0.4C80,55.6,79.9,56,80,56.5c0,0.5,0.1,0.9,0.3,1.1
			c0.2,0.2,0.5,0.3,0.8,0.3c0.2,0,0.4-0.1,0.6-0.2C81.8,57.6,81.9,57.3,82,57z"/>
		<path class="st4" d="M83.6,58.5l-0.1-4.3l3.2-0.1l0,0.7l-2.3,0l0,0.9l2.2,0l0,0.7l-2.2,0l0,1.2l2.4,0l0,0.7L83.6,58.5z"/>
		<path class="st4" d="M87.5,54.2l1.6,0c0.4,0,0.6,0,0.8,0.1c0.3,0.1,0.5,0.2,0.7,0.4c0.2,0.2,0.3,0.4,0.4,0.7
			c0.1,0.3,0.2,0.6,0.2,1c0,0.4,0,0.7-0.1,0.9c-0.1,0.3-0.2,0.6-0.4,0.8c-0.1,0.1-0.3,0.3-0.6,0.4c-0.2,0.1-0.4,0.1-0.8,0.1l-1.6,0
			L87.5,54.2z M88.4,54.9l0.1,2.8l0.6,0c0.2,0,0.4,0,0.5-0.1c0.1,0,0.3-0.1,0.3-0.2c0.1-0.1,0.2-0.2,0.2-0.4
			c0.1-0.2,0.1-0.5,0.1-0.8c0-0.3,0-0.6-0.1-0.8c-0.1-0.2-0.1-0.3-0.3-0.4c-0.1-0.1-0.2-0.2-0.4-0.2c-0.1,0-0.4,0-0.7,0L88.4,54.9z"
			/>
		<path class="st4" d="M93.4,54.1L95,54c0.4,0,0.6,0,0.8,0.1c0.3,0.1,0.5,0.2,0.7,0.4c0.2,0.2,0.3,0.4,0.4,0.7
			c0.1,0.3,0.2,0.6,0.2,1c0,0.3,0,0.7-0.1,0.9c-0.1,0.3-0.2,0.6-0.4,0.8c-0.1,0.1-0.3,0.3-0.6,0.4c-0.2,0.1-0.4,0.1-0.8,0.1
			l-1.6,0.1L93.4,54.1z M94.3,54.8l0.1,2.8l0.6,0c0.2,0,0.4,0,0.5-0.1c0.1,0,0.3-0.1,0.3-0.2c0.1-0.1,0.2-0.2,0.2-0.4
			c0.1-0.2,0.1-0.5,0.1-0.8c0-0.3,0-0.6-0.1-0.8C96,55.2,95.9,55,95.8,55c-0.1-0.1-0.2-0.2-0.4-0.2c-0.1,0-0.4,0-0.7,0L94.3,54.8z"
			/>
		<path class="st4" d="M97.9,58.2l-0.2-4.3l3.2-0.1l0,0.7l-2.3,0.1l0,0.9l2.1-0.1l0,0.7l-2.1,0.1l0,1.2l2.4-0.1l0,0.7L97.9,58.2z"/>
		<path class="st4" d="M102.9,58l-1.7-4.2l0.9,0l1.2,3.1l0.9-3.2l0.9,0l-1.3,4.3L102.9,58z"/>
		<path class="st4" d="M105.8,57.8l-0.3-4.2l3.2-0.2l0,0.7l-2.3,0.1l0.1,0.9l2.1-0.1l0,0.7l-2.1,0.1l0.1,1.2l2.4-0.1l0,0.7
			L105.8,57.8z"/>
		<path class="st4" d="M109.8,57.6l-0.3-4.2l0.9-0.1l0.2,3.5l2.1-0.1l0.1,0.7L109.8,57.6z"/>
		<path class="st4" d="M113.1,55.3c0-0.4,0-0.8,0.1-1.1c0.1-0.2,0.2-0.4,0.3-0.6c0.2-0.2,0.3-0.3,0.5-0.4c0.3-0.1,0.6-0.2,0.9-0.2
			c0.6-0.1,1.1,0.1,1.6,0.4c0.4,0.4,0.6,0.9,0.7,1.6c0.1,0.7-0.1,1.2-0.4,1.7c-0.3,0.4-0.8,0.7-1.5,0.7c-0.6,0.1-1.2-0.1-1.6-0.4
			C113.4,56.4,113.1,55.9,113.1,55.3z M113.9,55.1c0,0.5,0.2,0.8,0.4,1.1c0.2,0.2,0.5,0.3,0.9,0.3c0.3,0,0.6-0.2,0.8-0.4
			c0.2-0.3,0.3-0.6,0.2-1.1c0-0.5-0.2-0.8-0.4-1.1c-0.2-0.2-0.5-0.3-0.9-0.3c-0.4,0-0.6,0.2-0.8,0.4C114,54.3,113.9,54.7,113.9,55.1
			z"/>
		<path class="st4" d="M118,56.9l-0.4-4.2l1.4-0.1c0.5-0.1,0.9-0.1,1,0c0.3,0,0.5,0.2,0.7,0.4c0.2,0.2,0.3,0.5,0.3,0.8
			c0,0.3,0,0.5-0.1,0.7c-0.1,0.2-0.2,0.3-0.3,0.5c-0.1,0.1-0.3,0.2-0.4,0.2c-0.2,0.1-0.5,0.1-0.9,0.2l-0.6,0.1l0.2,1.6L118,56.9z
			 M118.5,53.3l0.1,1.2l0.5,0c0.3,0,0.6-0.1,0.7-0.1c0.1-0.1,0.2-0.1,0.2-0.2c0.1-0.1,0.1-0.2,0.1-0.3c0-0.2-0.1-0.3-0.2-0.4
			c-0.1-0.1-0.2-0.1-0.4-0.2c-0.1,0-0.3,0-0.6,0L118.5,53.3z"/>
		<path class="st4" d="M122,56.5l-0.5-4.2l1.3-0.2l1.1,2.8l0.4-3l1.3-0.2l0.5,4.2l-0.8,0.1l-0.4-3.3l-0.4,3.4l-0.8,0.1l-1.2-3.2
			l0.4,3.3L122,56.5z"/>
		<path class="st4" d="M126.9,55.9l-0.6-4.2l3.1-0.5l0.1,0.7l-2.3,0.3l0.1,0.9l2.1-0.3l0.1,0.7l-2.1,0.3l0.2,1.1l2.4-0.3l0.1,0.7
			L126.9,55.9z"/>
		<path class="st4" d="M130.9,55.3l-0.7-4.2L131,51l2.2,2.5l-0.5-2.8l0.8-0.1l0.7,4.2l-0.9,0.1l-2.2-2.5l0.5,2.7L130.9,55.3z"/>
		<path class="st4" d="M136,54.4l-0.6-3.5l-1.3,0.2l-0.1-0.7l3.3-0.6l0.1,0.7l-1.2,0.2l0.6,3.5L136,54.4z"/>
		<path class="st4" d="M138.2,52.6l0.8-0.2c0.1,0.3,0.2,0.4,0.4,0.5c0.2,0.1,0.4,0.1,0.7,0.1c0.3-0.1,0.5-0.2,0.6-0.3
			c0.1-0.1,0.2-0.3,0.1-0.4c0-0.1-0.1-0.2-0.1-0.2c-0.1-0.1-0.2-0.1-0.3-0.1c-0.1,0-0.3,0-0.7,0c-0.5,0-0.8-0.1-1-0.2
			c-0.3-0.2-0.5-0.4-0.6-0.8c0-0.2,0-0.4,0.1-0.6c0.1-0.2,0.2-0.4,0.4-0.5c0.2-0.1,0.5-0.2,0.8-0.3c0.5-0.1,0.9-0.1,1.3,0.1
			c0.3,0.2,0.5,0.5,0.6,0.8l-0.8,0.2c-0.1-0.2-0.2-0.3-0.3-0.4c-0.1-0.1-0.3-0.1-0.6,0c-0.2,0-0.4,0.1-0.5,0.3
			c-0.1,0.1-0.1,0.2-0.1,0.3c0,0.1,0.1,0.2,0.2,0.2c0.1,0.1,0.4,0.1,0.8,0.1c0.4,0,0.8,0.1,1,0.1c0.2,0.1,0.4,0.2,0.6,0.3
			c0.1,0.2,0.2,0.4,0.3,0.6c0,0.2,0,0.5-0.1,0.7c-0.1,0.2-0.2,0.4-0.5,0.6c-0.2,0.2-0.5,0.3-0.9,0.3c-0.5,0.1-1,0.1-1.3-0.1
			C138.6,53.4,138.3,53.1,138.2,52.6z"/>
	</g>
	<g>
		<path class="st5" d="M37.4,42.9l0-15.5l-5.6,0l0-3.2l14.9,0l0,3.2l-5.5,0l0,15.5L37.4,42.9z"/>
	</g>
	<g>
		<path class="st5" d="M119.7,23.3l6.9,0c1.6,0,2.7,0.1,3.6,0.4c1.1,0.3,2,0.9,2.8,1.7c0.8,0.8,1.4,1.8,1.8,3
			c0.4,1.2,0.6,2.7,0.6,4.4c0,1.5-0.2,2.9-0.6,4c-0.5,1.4-1.2,2.4-2,3.3c-0.7,0.6-1.6,1.1-2.7,1.5c-0.8,0.3-2,0.4-3.4,0.4l-7.1,0
			L119.7,23.3z M123.4,26.4l-0.1,12.3l2.8,0c1.1,0,1.8,0,2.3-0.2c0.6-0.1,1.1-0.4,1.5-0.8c0.4-0.4,0.7-1,1-1.8
			c0.3-0.8,0.4-2,0.4-3.4c0-1.4-0.1-2.5-0.4-3.3c-0.3-0.8-0.6-1.4-1.1-1.8c-0.5-0.4-1-0.7-1.7-0.9c-0.5-0.1-1.6-0.2-3.1-0.2
			L123.4,26.4z"/>
	</g>
	<path class="st2" d="M83.1,18.6c-7.8,0-14.2,6.3-14.2,14.1s6.4,14.1,14.2,14.1c7.8,0,14.2-6.3,14.2-14.1S91,18.6,83.1,18.6"/>
	<g>
		<path class="st5" d="M75.6,41.9l0.1-18.6l8,0.1c2,0,3.5,0.2,4.4,0.5c0.9,0.3,1.6,0.9,2.2,1.8c0.5,0.9,0.8,1.8,0.8,2.9
			c0,1.4-0.4,2.5-1.3,3.5c-0.8,0.9-2.1,1.5-3.7,1.7c0.8,0.5,1.5,1,2,1.6c0.5,0.6,1.2,1.6,2.1,3l2.3,3.6L88,42l-2.7-4.1
			c-1-1.5-1.6-2.4-2-2.8c-0.4-0.4-0.7-0.6-1.1-0.8c-0.4-0.1-1-0.2-1.9-0.2l-0.8,0l-0.1,7.8L75.6,41.9z M79.5,31.2l2.8,0
			c1.8,0,2.9-0.1,3.4-0.2c0.5-0.1,0.8-0.4,1.1-0.8c0.3-0.4,0.4-0.8,0.4-1.4c0-0.6-0.2-1.1-0.5-1.5c-0.3-0.4-0.8-0.6-1.4-0.7
			c-0.3,0-1.2-0.1-2.8-0.1l-3,0L79.5,31.2z"/>
	</g>
</g>
</svg>
