<svg xmlns="http://www.w3.org/2000/svg" width="155" height="62.398" viewBox="0 0 155 62.398">
  <g id="Group_7908" data-name="Group 7908" transform="translate(-139 -39.602)">
    <g id="Group_2" data-name="Group 2" transform="translate(157.932 39.602)">
      <path id="Subtraction_1" data-name="Subtraction 1" d="M3.957,23.311H0V9A9.01,9.01,0,0,1,9,0H19.69a9.01,9.01,0,0,1,9,9V23.309H24.733V9.885a6.007,6.007,0,0,0-6-6H9.958a6.007,6.007,0,0,0-6,6V23.31Z" transform="translate(0 0)" fill="#fff"/>
      <path id="Subtraction_3" data-name="Subtraction 3" d="M17.641,23.273H9.8a10.116,10.116,0,0,1-6.966-2.6A9.078,9.078,0,0,1,0,13.941V0H3.921V8.718l0,5.375a5.013,5.013,0,0,0,1.717,3.544,7.438,7.438,0,0,0,5.21,1.831h6.235c4.712,0,6.668-3.5,6.668-5.375a5.2,5.2,0,0,0-1.369-3.422,6.968,6.968,0,0,0-5.3-1.953H7.841V4.609H18.621a9.28,9.28,0,0,1,6.746,2.944,9.406,9.406,0,0,1,2.686,6.388C28.053,18.528,24.159,23.273,17.641,23.273Z" transform="translate(31.64 0.439)" fill="#fff"/>
    </g>
    <path id="Path_3" data-name="Path 3" d="M1.377-1.694v-9.165h.614v1.5A3.006,3.006,0,0,1,3.3-10.617a4.439,4.439,0,0,1,2.019-.431,3.559,3.559,0,0,1,2.554.81,3.277,3.277,0,0,1,.842,2.466v6.079H8.105v-5.9A3.228,3.228,0,0,0,7.454-9.85a2.8,2.8,0,0,0-2.112-.69,4.363,4.363,0,0,0-1.475.228,2.743,2.743,0,0,0-1.075.685,2.59,2.59,0,0,0-.619,1.065A7.549,7.549,0,0,0,1.991-6.6v4.906ZM11.446-6.246a4.642,4.642,0,0,0,1,3.151,3.431,3.431,0,0,0,2.731,1.151,3.473,3.473,0,0,0,2.745-1.151,4.6,4.6,0,0,0,1.014-3.151,4.614,4.614,0,0,0-1.014-3.16,3.473,3.473,0,0,0-2.745-1.151,3.431,3.431,0,0,0-2.731,1.151A4.656,4.656,0,0,0,11.446-6.246Zm-.614,0A5.047,5.047,0,0,1,12-9.764a4.078,4.078,0,0,1,3.183-1.285A4.107,4.107,0,0,1,18.37-9.764a5.021,5.021,0,0,1,1.173,3.518A5.025,5.025,0,0,1,18.37-2.733a4.1,4.1,0,0,1-3.192,1.289A4.078,4.078,0,0,1,12-2.728,5.047,5.047,0,0,1,10.832-6.246Zm10.86,4.552v-9.165h.614v1.647a2.8,2.8,0,0,1,1.117-1.375,3.418,3.418,0,0,1,1.833-.461v.543a2.7,2.7,0,0,0-2.275,1.035,6.091,6.091,0,0,0-.675,3.328v4.449ZM29.63-13.98q-.056,0-.172-.009T29.286-14a1.345,1.345,0,0,0-1.075.345,2.592,2.592,0,0,0-.284,1.492v1.3h1.666v.509H27.927v8.657h-.586V-10.35H25.963v-.509h1.377v-1.285a3.071,3.071,0,0,1,.391-1.841,1.788,1.788,0,0,1,1.442-.479q.168,0,.265,0t.181.013Zm1.852,7.734a4.642,4.642,0,0,0,1,3.151,3.431,3.431,0,0,0,2.731,1.151,3.473,3.473,0,0,0,2.745-1.151,4.6,4.6,0,0,0,1.014-3.151,4.614,4.614,0,0,0-1.014-3.16,3.473,3.473,0,0,0-2.745-1.151,3.431,3.431,0,0,0-2.731,1.151A4.656,4.656,0,0,0,31.482-6.246Zm-.614,0a5.047,5.047,0,0,1,1.163-3.518,4.078,4.078,0,0,1,3.183-1.285,4.107,4.107,0,0,1,3.192,1.285,5.021,5.021,0,0,1,1.173,3.518,5.025,5.025,0,0,1-1.173,3.513,4.1,4.1,0,0,1-3.192,1.289,4.078,4.078,0,0,1-3.183-1.285A5.047,5.047,0,0,1,30.868-6.246ZM41.783-1.694V-14.368h.6V-1.694Zm3.276,0V-14.368h.614v8.734l5.7-5.225h.744l-3.6,3.337L52.69-1.694H52L48.093-7.134l-2.42,2.173v3.268ZM54.4-6.246a4.642,4.642,0,0,0,1,3.151,3.431,3.431,0,0,0,2.731,1.151,3.47,3.47,0,0,0,2.75-1.151,4.614,4.614,0,0,0,1.01-3.151,4.628,4.628,0,0,0-1.01-3.16,3.47,3.47,0,0,0-2.75-1.151A3.431,3.431,0,0,0,55.4-9.406,4.656,4.656,0,0,0,54.4-6.246Zm-.614,4.552V-14.368H54.4v5.6a3.719,3.719,0,0,1,1.456-1.7,4.3,4.3,0,0,1,2.275-.573,4.107,4.107,0,0,1,3.192,1.285A5.021,5.021,0,0,1,62.5-6.246a5.034,5.034,0,0,1-1.168,3.518,4.1,4.1,0,0,1-3.2,1.285,4.331,4.331,0,0,1-2.229-.543,3.984,3.984,0,0,1-1.5-1.647v1.94Zm10.953,0V-14.368h.6V-1.694Zm3.332,0v-9.165h.6v9.165Zm0-11.191v-1.483h.6v1.483ZM71.349-1.694v-9.165h.614v1.5a3.006,3.006,0,0,1,1.312-1.259,4.439,4.439,0,0,1,2.019-.431,3.559,3.559,0,0,1,2.554.81,3.277,3.277,0,0,1,.842,2.466v6.079h-.614v-5.9a3.228,3.228,0,0,0-.651-2.259,2.8,2.8,0,0,0-2.112-.69,4.363,4.363,0,0,0-1.475.228,2.743,2.743,0,0,0-1.075.685,2.59,2.59,0,0,0-.619,1.065A7.55,7.55,0,0,0,71.963-6.6v4.906Zm17.6-4.552a4.642,4.642,0,0,0-1.005-3.16,3.445,3.445,0,0,0-2.736-1.151,3.459,3.459,0,0,0-2.741,1.151,4.628,4.628,0,0,0-1.01,3.16,4.614,4.614,0,0,0,1.01,3.151,3.459,3.459,0,0,0,2.741,1.151,3.445,3.445,0,0,0,2.736-1.151A4.628,4.628,0,0,0,88.946-6.246Zm.586-8.122V-1.694h-.586V-3.728a3.549,3.549,0,0,1-1.428,1.7,4.359,4.359,0,0,1-2.313.582,4.1,4.1,0,0,1-3.2-1.285,5.034,5.034,0,0,1-1.168-3.518,5.021,5.021,0,0,1,1.173-3.518,4.107,4.107,0,0,1,3.192-1.285,4.5,4.5,0,0,1,2.322.578,3.324,3.324,0,0,1,1.419,1.63v-5.527ZM92.408-4.41A2.919,2.919,0,0,0,93.45-2.595a3.385,3.385,0,0,0,2.122.616,3.566,3.566,0,0,0,2.117-.569,1.769,1.769,0,0,0,.8-1.509,1.4,1.4,0,0,0-.465-1.091,3.538,3.538,0,0,0-1.489-.677l-.521-.129a10.019,10.019,0,0,1-3.127-1.1,1.908,1.908,0,0,1-.591-.685,1.95,1.95,0,0,1-.209-.9,2.054,2.054,0,0,1,.94-1.742,4.129,4.129,0,0,1,2.457-.673,3.622,3.622,0,0,1,2.308.7A2.705,2.705,0,0,1,98.81-8.419h-.586a2.335,2.335,0,0,0-.884-1.591,3.153,3.153,0,0,0-1.945-.548,3.307,3.307,0,0,0-1.931.522A1.567,1.567,0,0,0,92.715-8.7q0,1.354,3.024,2.087l.2.052a6.6,6.6,0,0,1,2.517.992,1.885,1.885,0,0,1,.665,1.535,2.229,2.229,0,0,1-1,1.858,4.141,4.141,0,0,1-2.531.737,4.131,4.131,0,0,1-2.638-.785,3.067,3.067,0,0,1-1.14-2.181Z" transform="translate(137.623 80.062)" fill="#fff"/>
    <rect id="Rectangle_13" data-name="Rectangle 13" width="48" height="4" transform="translate(246 40)" fill="#F39200"/>
    <rect id="Rectangle_15" data-name="Rectangle 15" width="48" height="4" transform="translate(246 69)" fill="#F39200"/>
    <rect id="Rectangle_14" data-name="Rectangle 14" width="48" height="4" transform="translate(246 54)" fill="#F39200"/>
    <rect id="Rectangle_16" data-name="Rectangle 16" width="48" height="4" transform="translate(246 83)" fill="#F39200"/>
    <rect id="Rectangle_88" data-name="Rectangle 88" width="155" height="4" transform="translate(139 98)" fill="#f39200"/>
    <text id="www.norfolkblinds.com.au" transform="translate(139 88)" fill="#fff" font-size="9" font-family="SegoeUI, Segoe UI"><tspan x="0" y="0">www.norfolkblinds.com.au</tspan></text>
  </g>
</svg>
